<svg data-v-fde0c5aa="" xmlns="http://www.w3.org/2000/svg" viewBox="0 0 300 300" class="iconLeft"><!----><defs data-v-fde0c5aa=""><!----></defs><rect data-v-fde0c5aa="" fill="transparent" x="0" y="0" width="300px" height="300px" class="logo-background-square"></rect><defs data-v-fde0c5aa=""><!----></defs><g data-v-fde0c5aa="" id="e696ce75-1b27-4a5e-bdd8-2f849cdc80c5" fill="#000000" transform="matrix(4.795025238957882,0,0,4.795025238957882,121.3758181438812,109.69781300374578)"><path d="M4.56 13.80L4.56 13.80Q4.00 13.80 3.61 13.41L3.61 13.41L3.61 13.41Q3.22 13.02 3.22 12.46L3.22 12.46L3.22 5.25L1.20 5.25L1.20 5.25Q0.77 5.25 0.46 4.94L0.46 4.94L0.46 4.94Q0.14 4.62 0.14 4.19L0.14 4.19L0.14 4.19Q0.14 3.74 0.46 3.43L0.46 3.43L0.46 3.43Q0.77 3.12 1.20 3.12L1.20 3.12L7.92 3.12L7.92 3.12Q8.37 3.12 8.68 3.43L8.68 3.43L8.68 3.43Q8.99 3.74 8.99 4.19L8.99 4.19L8.99 4.19Q8.99 4.62 8.68 4.94L8.68 4.94L8.68 4.94Q8.37 5.25 7.92 5.25L7.92 5.25L5.91 5.25L5.91 12.46L5.91 12.46Q5.91 13.02 5.52 13.41L5.52 13.41L5.52 13.41Q5.12 13.80 4.56 13.80L4.56 13.80ZM11.20 13.69L11.20 13.69Q10.63 13.69 10.32 13.38L10.32 13.38L10.32 13.38Q10.01 13.08 10.01 12.50L10.01 12.50L10.01 4.31L10.01 4.31Q10.01 3.74 10.32 3.43L10.32 3.43L10.32 3.43Q10.63 3.12 11.20 3.12L11.20 3.12L13.64 3.12L13.64 3.12Q16.18 3.12 17.78 4.40L17.78 4.40L17.78 4.40Q19.38 5.67 19.38 8.39L19.38 8.39L19.38 8.39Q19.38 10.99 17.86 12.34L17.86 12.34L17.86 12.34Q16.34 13.69 13.64 13.69L13.64 13.69L11.20 13.69ZM12.67 11.56L13.64 11.56L13.64 11.56Q15.05 11.56 15.82 10.84L15.82 10.84L15.82 10.84Q16.59 10.12 16.59 8.34L16.59 8.34L16.59 8.34Q16.59 6.69 15.83 5.96L15.83 5.96L15.83 5.96Q15.08 5.24 13.64 5.24L13.64 5.24L12.67 5.24L12.67 11.56ZM20.51 13.80L20.51 13.80Q20.01 13.80 19.65 13.45L19.65 13.45L19.65 13.45Q19.29 13.09 19.29 12.59L19.29 12.59L19.29 12.59Q19.29 12.40 19.36 12.19L19.36 12.19L22.02 4.49L22.02 4.49Q22.25 3.84 22.82 3.42L22.82 3.42L22.82 3.42Q23.39 3.01 24.12 3.01L24.12 3.01L24.12 3.01Q24.84 3.01 25.41 3.42L25.41 3.42L25.41 3.42Q25.98 3.84 26.21 4.49L26.21 4.49L28.84 12.11L28.84 12.11Q28.91 12.35 28.91 12.53L28.91 12.53L28.91 12.53Q28.91 13.05 28.54 13.43L28.54 13.43L28.54 13.43Q28.17 13.80 27.64 13.80L27.64 13.80L27.64 13.80Q27.22 13.80 26.88 13.56L26.88 13.56L26.88 13.56Q26.54 13.31 26.42 12.92L26.42 12.92L25.96 11.45L22.15 11.45L21.69 12.95L21.69 12.95Q21.57 13.33 21.25 13.57L21.25 13.57L21.25 13.57Q20.93 13.80 20.51 13.80L20.51 13.80ZM22.81 9.38L25.30 9.38L24.63 7.24L24.63 7.24Q24.42 6.57 24.28 6.01L24.28 6.01L24.14 5.46L23.97 5.46L23.83 6.01L23.83 6.01Q23.69 6.57 23.48 7.24L23.48 7.24L22.81 9.38Z"></path></g><defs data-v-fde0c5aa=""><linearGradient data-v-fde0c5aa="" gradientTransform="rotate(25)" id="31b8c025-4d12-4fb6-96e1-839615c9d258" x1="0%" y1="0%" x2="100%" y2="0%"><stop data-v-fde0c5aa="" offset="0%" stop-color="#E90DCA" stop-opacity="1"></stop><stop data-v-fde0c5aa="" offset="100%" stop-color="#1536F1" stop-opacity="1"></stop></linearGradient></defs><g data-v-fde0c5aa="" id="7aee146f-c5df-40a8-9b5b-b0f98d43262b" stroke="none" fill="url(#31b8c025-4d12-4fb6-96e1-839615c9d258)" transform="matrix(0.7847065927279326,0,0,0.7847065927279326,34.53844208467941,110.37859426498169)"><path d="M45.682 42.003L32.685 28.501c-2.059 2.181-3.547 4.738-4.162 7.393-.371 1.601-.79 5.783-.79 5.783l-5.056 10.096c-.08.179-.118.388-.118.601 0 .854.688 1.546 1.544 1.546h3.63v5.362c0 4.08 1.611 6.133 3.982 7.016l13.966-4.133V42.003zM33.833 45.29a2.257 2.257 0 1 1 .002-4.514 2.257 2.257 0 0 1-.002 4.514zM94.909 51.364L17.19 74.359l3.644 11.404 74.087-20.94-.012-13.459zM21.633 69.279c-6.609-5.851-10.792-14.384-10.792-23.884 0-10.623 5.227-20.037 13.232-25.84l-2.709-2.815C12.634 23.273 6.96 33.675 6.96 45.395c0 9.8 3.965 18.688 10.367 25.158l4.306-1.274zM61.684 47.275c2.73 0 4.952-2.221 4.952-4.952s-2.222-4.953-4.952-4.953-4.953 2.222-4.953 4.953 2.222 4.952 4.953 4.952z"></path><path d="M94.907 47.6l-.002-1.513c0-24.838-20.294-45.045-45.236-45.045-10.379 0-20.519 3.587-28.551 10.102l-.072.06 28.245 29.345v20.548L94.907 47.6zM61.684 34.663a7.61 7.61 0 0 1 4.147 1.229l5.062-5.062 1.914 1.915-4.998 4.997a7.612 7.612 0 0 1 1.534 4.58c0 4.224-3.436 7.659-7.659 7.659-4.225 0-7.661-3.436-7.661-7.659s3.436-7.659 7.661-7.659z"></path><g><path d="M67.171 82.44c11.377 0 21.792 6.712 27.773 17.502h.007l-.026-31.367-73.077 20.654c-2.525 3.826-4.456 7.692-6.821 10.713h24.375C45.488 88.983 55.864 82.44 67.171 82.44z"></path><path d="M67.171 86.155c-9.31 0-17.937 5.115-23.449 13.787h46.902c-5.442-8.55-14.091-13.787-23.453-13.787z"></path></g></g><!----></svg>