<svg data-v-423bf9ae="" xmlns="http://www.w3.org/2000/svg" viewBox="0 0 159.98146742990076 198" class="iconAboveSlogan"><!----><!----><!----><g data-v-423bf9ae="" id="93a670a8-4419-4d17-93fd-7ed3c914efaa" fill="#000000" transform="matrix(5.560704375544397,0,0,5.560704375544397,-0.7784957122029823,104.94239582082902)"><path d="M4.56 13.80L4.56 13.80Q4.00 13.80 3.61 13.41L3.61 13.41L3.61 13.41Q3.22 13.02 3.22 12.46L3.22 12.46L3.22 5.25L1.20 5.25L1.20 5.25Q0.77 5.25 0.46 4.94L0.46 4.94L0.46 4.94Q0.14 4.62 0.14 4.19L0.14 4.19L0.14 4.19Q0.14 3.74 0.46 3.43L0.46 3.43L0.46 3.43Q0.77 3.12 1.20 3.12L1.20 3.12L7.92 3.12L7.92 3.12Q8.37 3.12 8.68 3.43L8.68 3.43L8.68 3.43Q8.99 3.74 8.99 4.19L8.99 4.19L8.99 4.19Q8.99 4.62 8.68 4.94L8.68 4.94L8.68 4.94Q8.37 5.25 7.92 5.25L7.92 5.25L5.91 5.25L5.91 12.46L5.91 12.46Q5.91 13.02 5.52 13.41L5.52 13.41L5.52 13.41Q5.12 13.80 4.56 13.80L4.56 13.80ZM11.20 13.69L11.20 13.69Q10.63 13.69 10.32 13.38L10.32 13.38L10.32 13.38Q10.01 13.08 10.01 12.50L10.01 12.50L10.01 4.31L10.01 4.31Q10.01 3.74 10.32 3.43L10.32 3.43L10.32 3.43Q10.63 3.12 11.20 3.12L11.20 3.12L13.64 3.12L13.64 3.12Q16.18 3.12 17.78 4.40L17.78 4.40L17.78 4.40Q19.38 5.67 19.38 8.39L19.38 8.39L19.38 8.39Q19.38 10.99 17.86 12.34L17.86 12.34L17.86 12.34Q16.34 13.69 13.64 13.69L13.64 13.69L11.20 13.69ZM12.67 11.56L13.64 11.56L13.64 11.56Q15.05 11.56 15.82 10.84L15.82 10.84L15.82 10.84Q16.59 10.12 16.59 8.34L16.59 8.34L16.59 8.34Q16.59 6.69 15.83 5.96L15.83 5.96L15.83 5.96Q15.08 5.24 13.64 5.24L13.64 5.24L12.67 5.24L12.67 11.56ZM20.51 13.80L20.51 13.80Q20.01 13.80 19.65 13.45L19.65 13.45L19.65 13.45Q19.29 13.09 19.29 12.59L19.29 12.59L19.29 12.59Q19.29 12.40 19.36 12.19L19.36 12.19L22.02 4.49L22.02 4.49Q22.25 3.84 22.82 3.42L22.82 3.42L22.82 3.42Q23.39 3.01 24.12 3.01L24.12 3.01L24.12 3.01Q24.84 3.01 25.41 3.42L25.41 3.42L25.41 3.42Q25.98 3.84 26.21 4.49L26.21 4.49L28.84 12.11L28.84 12.11Q28.91 12.35 28.91 12.53L28.91 12.53L28.91 12.53Q28.91 13.05 28.54 13.43L28.54 13.43L28.54 13.43Q28.17 13.80 27.64 13.80L27.64 13.80L27.64 13.80Q27.22 13.80 26.88 13.56L26.88 13.56L26.88 13.56Q26.54 13.31 26.42 12.92L26.42 12.92L25.96 11.45L22.15 11.45L21.69 12.95L21.69 12.95Q21.57 13.33 21.25 13.57L21.25 13.57L21.25 13.57Q20.93 13.80 20.51 13.80L20.51 13.80ZM22.81 9.38L25.30 9.38L24.63 7.24L24.63 7.24Q24.42 6.57 24.28 6.01L24.28 6.01L24.14 5.46L23.97 5.46L23.83 6.01L23.83 6.01Q23.69 6.57 23.48 7.24L23.48 7.24L22.81 9.38Z"></path></g><defs data-v-423bf9ae=""><linearGradient data-v-423bf9ae="" gradientTransform="rotate(25)" id="6f31b876-a514-4c35-8972-15b53b8aee32" x1="0%" y1="0%" x2="100%" y2="0%"><stop data-v-423bf9ae="" offset="0%" style="stop-color: rgb(233, 13, 202); stop-opacity: 1;"></stop><stop data-v-423bf9ae="" offset="100%" style="stop-color: rgb(21, 54, 241); stop-opacity: 1;"></stop></linearGradient></defs><g data-v-423bf9ae="" id="d03f77c2-19d0-4ad2-9e98-1b3b924456e3" transform="matrix(1.098888905843099,0,0,1.098888905843099,24.965563638169982,-0.4430994541083564)" stroke="none" fill="url(#6f31b876-a514-4c35-8972-15b53b8aee32)"><path d="M45.682 42.003L32.685 28.501c-2.059 2.181-3.547 4.738-4.162 7.393-.371 1.601-.79 5.783-.79 5.783l-5.056 10.096c-.08.179-.118.388-.118.601 0 .854.688 1.546 1.544 1.546h3.63v5.362c0 4.08 1.611 6.133 3.982 7.016l13.966-4.133V42.003zM33.833 45.29a2.257 2.257 0 1 1 .002-4.514 2.257 2.257 0 0 1-.002 4.514zM94.909 51.364L17.19 74.359l3.644 11.404 74.087-20.94-.012-13.459zM21.633 69.279c-6.609-5.851-10.792-14.384-10.792-23.884 0-10.623 5.227-20.037 13.232-25.84l-2.709-2.815C12.634 23.273 6.96 33.675 6.96 45.395c0 9.8 3.965 18.688 10.367 25.158l4.306-1.274zM61.684 47.275c2.73 0 4.952-2.221 4.952-4.952s-2.222-4.953-4.952-4.953-4.953 2.222-4.953 4.953 2.222 4.952 4.953 4.952z"></path><path d="M94.907 47.6l-.002-1.513c0-24.838-20.294-45.045-45.236-45.045-10.379 0-20.519 3.587-28.551 10.102l-.072.06 28.245 29.345v20.548L94.907 47.6zM61.684 34.663a7.61 7.61 0 0 1 4.147 1.229l5.062-5.062 1.914 1.915-4.998 4.997a7.612 7.612 0 0 1 1.534 4.58c0 4.224-3.436 7.659-7.659 7.659-4.225 0-7.661-3.436-7.661-7.659s3.436-7.659 7.661-7.659z"></path><g><path d="M67.171 82.44c11.377 0 21.792 6.712 27.773 17.502h.007l-.026-31.367-73.077 20.654c-2.525 3.826-4.456 7.692-6.821 10.713h24.375C45.488 88.983 55.864 82.44 67.171 82.44z"></path><path d="M67.171 86.155c-9.31 0-17.937 5.115-23.449 13.787h46.902c-5.442-8.55-14.091-13.787-23.453-13.787z"></path></g></g><!----><g data-v-423bf9ae="" id="0d8c6f06-f9fa-40a7-b83b-aa184594c1aa" fill="#000000" transform="matrix(0.34801782172423223,0,0,0.34801782172423223,20.13734615138543,223.20825673118742)"><path d="M7.71 2.21L0.20 2.21L0.20 3.22L3.43 3.22L3.43 11.48L4.48 11.48L4.48 3.22L7.71 3.22ZM21.62 3.70L24.12 11.48L25.31 11.48L28.20 2.21L27.09 2.21L24.71 10.00L22.22 2.21L21.01 2.21L18.52 10.00L16.14 2.21L15.04 2.21L17.92 11.48L19.11 11.48ZM37.51 2.21L36.46 2.21L36.46 11.48L37.51 11.48ZM53.35 2.21L45.84 2.21L45.84 3.22L49.07 3.22L49.07 11.48L50.12 11.48L50.12 3.22L53.35 3.22ZM68.26 2.21L60.75 2.21L60.75 3.22L63.98 3.22L63.98 11.48L65.03 11.48L65.03 3.22L68.26 3.22ZM83.41 3.22L83.41 2.21L76.59 2.21L76.59 11.48L83.41 11.48L83.41 10.47L77.64 10.47L77.64 7.35L82.80 7.35L82.80 6.33L77.64 6.33L77.64 3.22ZM93.16 7.92L96.38 7.92L98.62 11.48L99.86 11.48L97.43 7.74C98.46 7.50 99.67 6.90 99.67 5.11C99.67 3.35 98.45 2.21 96.54 2.21L92.11 2.21L92.11 11.48L93.16 11.48ZM93.16 3.21L96.42 3.21C97.73 3.21 98.62 3.93 98.62 5.11C98.62 6.55 97.36 6.93 96.36 6.93L93.16 6.93ZM122.36 2.21L118.45 2.21L118.45 11.48L122.36 11.48C124.57 11.48 126.62 9.74 126.62 6.85C126.62 3.95 124.57 2.21 122.36 2.21ZM122.32 10.49L119.50 10.49L119.50 3.21L122.32 3.21C124.29 3.21 125.57 4.86 125.57 6.85C125.57 8.83 124.29 10.49 122.32 10.49ZM139.29 2.21L137.97 2.21L134.04 11.48L135.20 11.48L136.33 8.79L140.92 8.79L142.06 11.48L143.22 11.48ZM136.74 7.83L138.63 3.30L140.52 7.83ZM157.15 2.21L149.63 2.21L149.63 3.22L152.87 3.22L152.87 11.48L153.92 11.48L153.92 3.22L157.15 3.22ZM168.81 2.21L167.50 2.21L163.56 11.48L164.72 11.48L165.86 8.79L170.45 8.79L171.58 11.48L172.75 11.48ZM166.26 7.83L168.15 3.30L170.04 7.83ZM195.06 2.21L193.75 2.21L189.81 11.48L190.97 11.48L192.11 8.79L196.70 8.79L197.83 11.48L199.00 11.48ZM192.51 7.83L194.40 3.30L196.29 7.83ZM210.97 10.57C208.71 10.57 207.45 8.93 207.45 6.85C207.45 4.76 208.71 3.12 210.97 3.12C212.49 3.12 213.50 3.85 213.98 4.98L215.08 4.98C214.49 3.29 212.98 2.10 210.88 2.10C208.10 2.10 206.40 4.21 206.40 6.85C206.40 9.48 208.10 11.59 210.88 11.59C212.98 11.59 214.49 10.40 215.08 8.71L213.98 8.71C213.50 9.84 212.49 10.57 210.97 10.57ZM232.50 12.15C232.01 12.54 231.48 12.78 230.80 12.78C229.52 12.78 228.84 12.03 228.56 11.51C230.86 11.13 232.40 9.20 232.40 6.85C232.40 4.21 230.51 2.10 227.70 2.10C224.88 2.10 222.99 4.21 222.99 6.85C222.99 9.42 224.80 11.48 227.50 11.58C228.10 12.82 229.40 13.68 230.79 13.68C231.69 13.68 232.40 13.43 233.06 12.91ZM227.70 10.57C225.44 10.57 224.04 8.93 224.04 6.85C224.04 4.76 225.44 3.12 227.70 3.12C229.95 3.12 231.35 4.76 231.35 6.85C231.35 8.93 229.95 10.57 227.70 10.57ZM247.80 2.21L247.80 7.52C247.80 9.67 246.37 10.57 244.90 10.57C243.43 10.57 242.02 9.67 242.02 7.52L242.02 2.21L240.97 2.21L240.97 7.49C240.97 9.95 242.59 11.59 244.90 11.59C247.23 11.59 248.85 9.94 248.85 7.49L248.85 2.21ZM259.06 2.21L258.01 2.21L258.01 11.48L259.06 11.48ZM268.94 4.65C268.94 4.03 269.30 3.08 271.40 3.08C273.10 3.08 273.88 3.82 273.99 4.75L275.07 4.75C274.99 3.36 273.87 2.10 271.40 2.10C269.08 2.10 267.92 3.15 267.92 4.66C267.92 7.84 274.26 6.69 274.26 8.96C274.26 10.05 273.28 10.60 271.71 10.60C270.10 10.60 268.80 10.05 268.73 8.71L267.64 8.71C267.78 10.37 268.90 11.59 271.64 11.59C273.92 11.59 275.31 10.64 275.31 8.92C275.31 5.68 268.94 6.80 268.94 4.65ZM284.98 2.21L283.93 2.21L283.93 11.48L284.98 11.48ZM300.83 2.21L293.31 2.21L293.31 3.22L296.55 3.22L296.55 11.48L297.60 11.48L297.60 3.22L300.83 3.22ZM310.21 2.21L309.16 2.21L309.16 11.48L310.21 11.48ZM323.60 2.10C320.78 2.10 318.89 4.21 318.89 6.85C318.89 9.48 320.78 11.59 323.60 11.59C326.41 11.59 328.30 9.48 328.30 6.85C328.30 4.21 326.41 2.10 323.60 2.10ZM323.60 10.57C321.34 10.57 319.94 8.93 319.94 6.85C319.94 4.76 321.34 3.12 323.60 3.12C325.85 3.12 327.25 4.76 327.25 6.85C327.25 8.93 325.85 10.57 323.60 10.57ZM343.92 2.21L343.92 10.01L338.20 2.21L336.98 2.21L336.98 11.48L338.03 11.48L338.03 3.65L343.76 11.48L344.97 11.48L344.97 2.21Z"></path></g></svg>