<svg data-v-423bf9ae="" xmlns="http://www.w3.org/2000/svg" viewBox="0 0 53.38180197347517 60" class="icon"><!----><!----><!----><!----><g data-v-423bf9ae="" id="29af4625-10a3-4ce2-a832-124317dc03b9" transform="matrix(0.6066733981222433,0,0,0.6066733981222433,-4.222446104524529,-0.6321535697581631)" stroke="none" fill="black"><path d="M45.682 42.003L32.685 28.501c-2.059 2.181-3.547 4.738-4.162 7.393-.371 1.601-.79 5.783-.79 5.783l-5.056 10.096c-.08.179-.118.388-.118.601 0 .854.688 1.546 1.544 1.546h3.63v5.362c0 4.08 1.611 6.133 3.982 7.016l13.966-4.133V42.003zM33.833 45.29a2.257 2.257 0 1 1 .002-4.514 2.257 2.257 0 0 1-.002 4.514zM94.909 51.364L17.19 74.359l3.644 11.404 74.087-20.94-.012-13.459zM21.633 69.279c-6.609-5.851-10.792-14.384-10.792-23.884 0-10.623 5.227-20.037 13.232-25.84l-2.709-2.815C12.634 23.273 6.96 33.675 6.96 45.395c0 9.8 3.965 18.688 10.367 25.158l4.306-1.274zM61.684 47.275c2.73 0 4.952-2.221 4.952-4.952s-2.222-4.953-4.952-4.953-4.953 2.222-4.953 4.953 2.222 4.952 4.953 4.952z"></path><path d="M94.907 47.6l-.002-1.513c0-24.838-20.294-45.045-45.236-45.045-10.379 0-20.519 3.587-28.551 10.102l-.072.06 28.245 29.345v20.548L94.907 47.6zM61.684 34.663a7.61 7.61 0 0 1 4.147 1.229l5.062-5.062 1.914 1.915-4.998 4.997a7.612 7.612 0 0 1 1.534 4.58c0 4.224-3.436 7.659-7.659 7.659-4.225 0-7.661-3.436-7.661-7.659s3.436-7.659 7.661-7.659z"></path><g><path d="M67.171 82.44c11.377 0 21.792 6.712 27.773 17.502h.007l-.026-31.367-73.077 20.654c-2.525 3.826-4.456 7.692-6.821 10.713h24.375C45.488 88.983 55.864 82.44 67.171 82.44z"></path><path d="M67.171 86.155c-9.31 0-17.937 5.115-23.449 13.787h46.902c-5.442-8.55-14.091-13.787-23.453-13.787z"></path></g></g><!----></svg>